<svg height="512pt" viewBox="0 0 512.00024 512" width="512pt" xmlns="http://www.w3.org/2000/svg"><path d="m392 382c0 5.523438-4.476562 10-10 10s-10-4.476562-10-10 4.476562-10 10-10 10 4.476562 10 10zm0 0"/><path d="m332 322c0 5.523438-4.476562 10-10 10s-10-4.476562-10-10 4.476562-10 10-10 10 4.476562 10 10zm0 0"/><path d="m120 130c0 22.054688 17.945312 40 40 40 11.027344 0 20 8.972656 20 20s-8.972656 20-20 20-20-8.972656-20-20c0-5.523438-4.476562-10-10-10s-10 4.476562-10 10c0 18.605469 12.765625 34.28125 30 38.734375v21.265625c0 5.523438 4.476562 10 10 10s10-4.476562 10-10v-21.265625c17.234375-4.453125 30-20.128906 30-38.734375 0-22.054688-17.945312-40-40-40-11.027344 0-20-8.972656-20-20s8.972656-20 20-20 20 8.972656 20 20c0 5.523438 4.476562 10 10 10s10-4.476562 10-10c0-18.605469-12.765625-34.28125-30-38.734375v-21.265625c0-5.523438-4.476562-10-10-10s-10 4.476562-10 10v21.265625c-17.234375 4.453125-30 20.128906-30 38.734375zm0 0"/><path d="m352 192c-12.257812 0-24.335938 1.378906-36.101562 4.097656 2.71875-11.777344 4.101562-23.855468 4.101562-36.097656 0-72.738281-48.230469-132.890625-112.535156-152.839844-5.273438-1.636718-10.878906 1.3125-12.515625 6.589844-1.636719 5.273438 1.3125 10.875 6.589843 12.511719 58.890626 18.273437 98.460938 72.015625 98.460938 133.738281 0 77.546875-62.738281 140-140 140h-125.4375l26.890625-26.242188c1.917969-1.875 3.007813-4.441406 3.015625-7.121093.011719-2.683594-1.058594-5.253907-2.960938-7.144531-26.769531-26.5-41.507812-61.835938-41.507812-99.492188 0-61.722656 39.570312-115.464844 98.460938-133.738281 5.277343-1.632813 8.226562-7.238281 6.589843-12.511719-1.636719-5.277344-7.242187-8.226562-12.515625-6.585938-64.265625 19.933594-112.535156 80.058594-112.535156 152.835938 0 39.628906 14.285156 77.011719 40.429688 106.328125l-37.414063 36.515625c-2.910156 2.839844-3.8125 7.160156-2.277344 10.925781 1.535157 3.765625 5.195313 6.230469 9.261719 6.230469h150c12.238281 0 24.316406-1.382812 36.101562-4.101562-2.71875 11.785156-4.101562 23.863281-4.101562 36.101562 0 88.222656 71.773438 160 160 160h150c4.066406 0 7.730469-2.460938 9.261719-6.230469 1.535156-3.765625.632812-8.085937-2.277344-10.925781l-37.414063-36.515625c26.144532-29.316406 40.429688-66.699219 40.429688-106.328125 0-88.222656-71.773438-160-160-160zm98.492188 259.492188c-1.902344 1.890624-2.972657 4.460937-2.960938 7.144531.007812 2.679687 1.097656 5.246093 3.015625 7.121093l26.890625 26.242188h-125.4375c-77.195312 0-140-62.804688-140-140 0-14.757812 2.285156-29.25 6.78125-43.148438 41.316406-16.300781 73.765625-48.75 90.0625-90.066406 13.867188-4.5 28.359375-6.785156 43.15625-6.785156 77.195312 0 140 62.804688 140 140 0 37.65625-14.738281 72.992188-41.507812 99.492188zm0 0"/><path d="m374.929688 314.929688-60 60c-3.90625 3.90625-3.90625 10.238281 0 14.140624 3.90625 3.90625 10.234374 3.90625 14.140624 0l60-60c3.90625-3.902343 3.90625-10.234374 0-14.140624s-10.234374-3.90625-14.140624 0zm0 0"/><path d="m170 10c0 5.523438-4.476562 10-10 10s-10-4.476562-10-10 4.476562-10 10-10 10 4.476562 10 10zm0 0"/></svg>