<?xml version="1.0" encoding="iso-8859-1"?>
<!-- Generator: Adobe Illustrator 19.0.0, SVG Export Plug-In . SVG Version: 6.00 Build 0)  -->
<svg version="1.1" id="Layer_1" xmlns="http://www.w3.org/2000/svg" xmlns:xlink="http://www.w3.org/1999/xlink" x="0px" y="0px"
	 viewBox="0 0 512 512" style="enable-background:new 0 0 512 512;" xml:space="preserve">
<g>
	<g>
		<path d="M437.019,74.981C388.668,26.628,324.38,0,256,0S123.333,26.629,74.981,74.981C26.628,123.332,0,187.62,0,256
			c0,61.906,22.39,121.656,63.046,168.246c40.261,46.136,95.638,76.357,155.929,85.094c5.708,0.832,11.012-3.13,11.84-8.842
			s-3.13-11.012-8.842-11.84C107.341,472.047,20.898,372.025,20.898,256C20.898,126.365,126.365,20.898,256,20.898
			S491.102,126.365,491.102,256c0,116.158-86.556,216.196-201.337,232.697c-5.713,0.821-9.678,6.118-8.857,11.829
			c0.749,5.209,5.217,8.964,10.33,8.964c0.495,0,0.996-0.036,1.5-0.109c60.356-8.677,115.803-38.875,156.125-85.032
			C489.578,377.744,512,317.956,512,256C512,187.62,485.371,123.333,437.019,74.981z"/>
	</g>
</g>
<g>
	<g>
		<path d="M256.154,491.102h-0.267c-5.781-0.021-10.457,4.658-10.469,10.429c-0.012,5.771,4.658,10.457,10.429,10.469h0.268
			c0.007,0,0.014,0,0.021,0c5.762,0,10.438-4.665,10.448-10.429C266.594,495.8,261.925,491.114,256.154,491.102z"/>
	</g>
</g>
<g>
	<g>
		<path d="M420.621,143.11c-3.269-4.756-9.774-5.961-14.53-2.693c-4.756,3.269-5.961,9.774-2.693,14.53
			c48.705,70.859,39.85,166.493-21.054,227.396c-69.667,69.668-183.021,69.668-252.688,0c-69.667-69.667-69.667-183.021,0-252.688
			c62.23-62.231,159.166-70.169,230.493-18.876c4.684,3.369,11.214,2.303,14.584-2.382c3.37-4.685,2.303-11.214-2.382-14.584
			c-37.999-27.326-84.765-40.395-131.681-36.802c-47.434,3.633-92.108,24.185-125.79,57.867
			c-77.815,77.815-77.815,204.428,0,282.243c38.907,38.907,90.014,58.361,141.121,58.361s102.214-19.454,141.122-58.362
			C465.146,329.096,475.029,222.269,420.621,143.11z"/>
	</g>
</g>
<g>
	<g>
		<path d="M397.096,114.852c-4.081-4.08-10.698-4.08-14.778,0c-4.08,4.081-4.08,10.698,0,14.778l0.026,0.026
			c2.038,2.036,4.703,3.053,7.37,3.053c2.675,0,5.351-1.023,7.395-3.067C401.189,125.562,401.176,118.932,397.096,114.852z"/>
	</g>
</g>
<g>
	<g>
		<path d="M240.279,273.171c-0.002-0.003-0.095-0.097-0.111-0.113c-4.016-4.137-10.622-4.24-14.765-0.229
			c-4.146,4.013-4.254,10.629-0.239,14.775l0.179,0.182c2.047,2.092,4.756,3.141,7.469,3.141c2.636,0,5.274-0.992,7.307-2.98
			C244.243,283.911,244.315,277.295,240.279,273.171z"/>
	</g>
</g>
<g>
	<g>
		<path d="M321.893,245.551h-23.507c-3.943-15.708-16.376-28.076-32.116-31.936v-68.389c0-5.771-4.678-10.449-10.449-10.449
			c-5.771,0-10.449,4.678-10.449,10.449v68.409c-16.92,4.206-30.345,18.353-32.967,36.161c-0.841,5.709,3.105,11.018,8.815,11.86
			c5.703,0.839,11.018-3.105,11.86-8.815c1.646-11.172,11.422-19.596,22.742-19.596c12.675,0,22.987,10.311,22.988,22.986
			c0,11.27-8.049,20.803-19.136,22.666c-5.692,0.957-9.529,6.346-8.572,12.037c0.859,5.105,5.282,8.719,10.292,8.719
			c0.576,0,1.159-0.047,1.745-0.146c17.731-2.981,31.387-16.214,35.375-33.059h23.381c5.771,0,10.449-4.678,10.449-10.449
			C332.343,250.228,327.663,245.551,321.893,245.551z"/>
	</g>
</g>
<g>
	<g>
		<path d="M412.735,245.551h-13.596c-5.771,0-10.449,4.678-10.449,10.449c0,5.771,4.678,10.449,10.449,10.449h13.596
			c5.771,0,10.449-4.678,10.449-10.449C423.184,250.229,418.506,245.551,412.735,245.551z"/>
	</g>
</g>
<g>
	<g>
		<path d="M112.503,245.193H98.907c-5.771,0-10.449,4.678-10.449,10.449s4.678,10.449,10.449,10.449h13.596
			c5.771,0,10.449-4.678,10.449-10.449S118.274,245.193,112.503,245.193z"/>
	</g>
</g>
<g>
	<g>
		<path d="M256,88.458c-5.771,0-10.449,4.678-10.449,10.449v13.596c0,5.771,4.678,10.449,10.449,10.449
			c5.771,0,10.449-4.678,10.449-10.449V98.907C266.449,93.136,261.771,88.458,256,88.458z"/>
	</g>
</g>
<g>
	<g>
		<path d="M255.642,388.69c-5.771,0-10.449,4.678-10.449,10.449v13.596c0,5.771,4.678,10.449,10.449,10.449
			s10.449-4.678,10.449-10.449v-13.596C266.091,393.367,261.413,388.69,255.642,388.69z"/>
	</g>
</g>
<g>
</g>
<g>
</g>
<g>
</g>
<g>
</g>
<g>
</g>
<g>
</g>
<g>
</g>
<g>
</g>
<g>
</g>
<g>
</g>
<g>
</g>
<g>
</g>
<g>
</g>
<g>
</g>
<g>
</g>
</svg>
