<svg id="Capa_1" enable-background="new 0 0 512 512" height="512" viewBox="0 0 512 512" width="512" xmlns="http://www.w3.org/2000/svg"><g><g><g><path d="m416.833 85.075h-100.83c-5.523 0-10-4.478-10-10s4.477-10 10-10h100.83c5.523 0 10 4.478 10 10s-4.477 10-10 10z"/></g><g><path d="m416.833 130.67h-100.83c-5.523 0-10-4.478-10-10s4.477-10 10-10h100.83c5.523 0 10 4.478 10 10s-4.477 10-10 10z"/></g><path d="m462.122 0h-191.406c-19.192 0-34.807 15.614-34.807 34.807v22.521c-4.609 4.183-24.73 18.954-58.612-4.396-14.869-10.249-31.704-13.369-48.682-9.025-22.367 5.722-43.825 24.14-58.362 49.803-19.292-1.679-33.348 3.25-41.84 14.677-17.381 23.388-2.591 65.727 4.768 83.243-10.572 4.005-18.109 14.237-18.109 26.195 0 13.01 8.919 23.976 20.963 27.104 2.657 24.478 14.567 48.22 33.479 66.248 14.127 13.467 31.077 22.998 49.413 28.017v21.629h-89.123c-5.523 0-10 4.478-10 10v131.177c0 5.522 4.477 10 10 10h74.496c5.523 0 10-4.478 10-10s-4.477-10-10-10h-64.496v-111.177h24.743l31.531 46.921c1.728 2.572 4.55 4.197 7.642 4.401.22.015.439.021.659.021 2.856 0 5.59-1.225 7.495-3.381l11.57-13.103 17.763 28.727c1.822 2.947 5.041 4.741 8.505 4.741s6.683-1.794 8.505-4.741l17.763-28.728 11.57 13.104c1.905 2.157 4.639 3.381 7.495 3.381.228 0 .457-.008.687-.023 3.101-.213 5.926-1.855 7.645-4.445l31.125-46.875h24.707v111.177h-64.496c-5.523 0-10 4.478-10 10s4.477 10 10 10h74.496c5.523 0 10-4.478 10-10v-131.177c0-5.522-4.477-10-10-10h-89.189v-21.629c18.335-5.019 35.286-14.55 49.413-28.017 18.906-18.023 30.815-41.76 33.477-66.23 12.079-3.104 21.032-14.087 21.032-27.121 0-6.055-1.932-11.667-5.212-16.252h49.309v29.768c0 3.679 2.02 7.061 5.259 8.805 1.484.799 3.114 1.195 4.74 1.195 1.923 0 3.841-.555 5.505-1.651l57.806-38.116h60.773c19.192 0 34.806-15.614 34.806-34.807v-131.961c0-19.193-15.614-34.807-34.806-34.807zm-417.651 120.31c4.72-6.342 14.75-8.346 29.811-5.96 4.327.684 8.602-1.534 10.539-5.464l.11-.221c11.739-23.32 30.377-40.71 48.642-45.383 11.37-2.913 22.264-.852 32.375 6.116 27.232 18.77 48.909 18.109 62.3 14.252 4.885-1.407 9.039-3.322 12.443-5.291 8.59 20.137 24.125 65.499 9.899 104.101l-51.232-52.957c-1.891-1.955-4.489-3.047-7.186-3.047-.267 0-.535.011-.803.032-2.979.239-5.696 1.8-7.404 4.253-11.438 16.423-31.915 33.972-55.086 33.972h-60.48c-7.322 0-15.051 2.837-21.181 7.627-6.45-18.99-10.5-41.612-2.747-52.03zm60.983 285.53-16.811-25.017h38.899zm44.257 14.297-11.581-18.729 11.581-14.536 11.581 14.536zm44.209-14.353-22.039-24.961h38.613zm-33.9-44.961h-21.093v-18.015c3.49.317 7.008.478 10.547.478s7.057-.161 10.546-.478zm95.921-134.999h-2.475c-5.463 0-9.916 4.385-9.999 9.848-.721 47.492-43.766 87.614-93.995 87.614s-93.274-40.122-93.995-87.613c-.083-5.464-4.535-9.849-9.999-9.849h-2.408c-4.41 0-7.999-3.588-7.999-7.999s3.588-7.999 7.999-7.999h2.397c5.523 0 10-4.478 10-10 0-.901-.12-1.775-.344-2.606.224-.833.344-1.706.344-2.601 0-4.629 6.889-9.906 12.931-9.906h60.479c26.133 0 48.994-15.748 64.083-33.057l53.328 55.123c.028.029.057.057.085.085.016.016.032.033.049.049.041.041.082.081.124.121.018.017.035.034.053.051.04.038.08.075.121.112.021.019.042.039.063.058.038.034.076.068.114.101.026.023.052.045.078.068.034.029.067.057.101.086.033.027.065.054.098.081.029.023.057.046.086.069.041.032.082.065.124.096.021.016.041.032.062.047.054.041.109.082.164.122l.024.018c1.579 1.139 3.504 1.828 5.587 1.881.085.002.169.003.254.003h2.465c4.411 0 7.999 3.588 7.999 7.999s-3.587 7.998-7.998 7.998zm220.987-59.057c0 8.164-6.642 14.807-14.806 14.807h-63.773c-1.957 0-3.871.574-5.505 1.651l-44.806 29.544v-21.195c0-5.522-4.477-10-10-10h-66.188c6.104-21.706 5.969-46.917-.535-74.251-3.474-14.601-8.133-27.084-11.429-34.984-1.211-2.902-2.616-6.148-3.978-9.017.001-.05.002-.1.002-.151v-28.364c0-8.164 6.642-14.807 14.807-14.807h191.406c8.164 0 14.806 6.643 14.806 14.807v131.96z"/><g><path d="m149.473 294.358c-7.147 0-14.294-2.721-19.735-8.161-3.905-3.905-3.905-10.237 0-14.143 3.905-3.904 10.237-3.904 14.143 0 3.083 3.084 8.103 3.084 11.185 0 3.905-3.904 10.237-3.904 14.143 0 3.905 3.905 3.905 10.237 0 14.143-5.442 5.441-12.589 8.161-19.736 8.161z"/></g><g><g><path d="m200.107 248.536c-2.56 0-5.119-.977-7.071-2.93-8.667-8.668-8.667-22.771 0-31.439 3.904-3.906 10.237-3.907 14.142-.001 3.905 3.905 3.906 10.236 0 14.142-.87.871-.87 2.287 0 3.158 3.905 3.905 3.905 10.236 0 14.142-1.953 1.952-4.512 2.928-7.071 2.928z"/></g><g><path d="m98.839 248.536c-2.559 0-5.118-.976-7.071-2.929-3.905-3.905-3.906-10.236 0-14.142.87-.871.87-2.287 0-3.158-3.905-3.905-3.905-10.236 0-14.142 3.906-3.904 10.238-3.904 14.142.001 8.667 8.668 8.667 22.771 0 31.439-1.952 1.955-4.512 2.931-7.071 2.931z"/></g></g><path d="m149.32 512c-4.182 0-7.996-2.71-9.405-6.636-1.387-3.866-.203-8.329 2.936-10.986 3.283-2.778 8.092-3.123 11.745-.864 3.501 2.165 5.338 6.399 4.533 10.436-.919 4.614-5.102 8.05-9.809 8.05z"/></g></g></svg>