<svg id="Capa_1" enable-background="new 0 0 512 512" height="512" viewBox="0 0 512 512" width="512" xmlns="http://www.w3.org/2000/svg"><g><g><g><g><path d="m446.309 170.545-78.212-164.832c-1.655-3.489-5.172-5.713-9.034-5.713h-57.857c-5.523 0-10 4.477-10 10s4.478 10 10 10h51.534l74.024 156.009-70.709 315.991h-200.111l-70.709-315.992 74.025-156.008h51.534c5.523 0 10-4.477 10-10s-4.477-10-10-10h-57.857c-3.862 0-7.379 2.224-9.035 5.713l-78.212 164.832c-.957 2.016-1.211 4.294-.724 6.471l73.209 327.168c1.022 4.568 5.077 7.816 9.759 7.816h216.131c4.682 0 8.736-3.248 9.759-7.816l73.21-327.168c.487-2.177.232-4.455-.725-6.471z"/><path d="m256.179 20c4.226 0 8.088-2.769 9.457-6.763 1.373-4.009.011-8.595-3.37-11.168-3.246-2.47-7.72-2.721-11.225-.638-3.603 2.142-5.509 6.497-4.648 10.598.961 4.577 5.099 7.971 9.786 7.971z"/><path d="m173.382 49.568-61.377 124.152c-1.006 2.034-1.29 4.351-.805 6.567l61.175 279.848c1.004 4.592 5.07 7.864 9.769 7.864h147.711c4.7 0 8.766-3.272 9.77-7.864l61.175-279.848c.484-2.217.2-4.533-.806-6.567l-61.376-124.152c-1.687-3.41-5.161-5.568-8.965-5.568h-147.307c-3.804 0-7.278 2.158-8.964 5.568zm150.059 14.432 57.071 115.441-58.707 268.559h-131.611l-58.707-268.559 57.071-115.441z"/><path d="m186.064 249.435h36.191v91.83c0 5.523 4.477 10 10 10h47.49c5.523 0 10-4.477 10-10v-91.83h36.191c5.522 0 10-4.478 10-10v-47.489c0-5.522-4.478-10-10-10h-36.191v-40.554c0-5.523-4.477-10-10-10h-47.49c-5.523 0-10 4.477-10 10v40.554h-36.191c-5.523 0-10 4.478-10 10v47.489c0 5.522 4.477 10 10 10zm10-47.49h36.191c5.523 0 10-4.477 10-10v-40.554h27.49v40.554c0 5.523 4.478 10 10 10h36.191v27.489h-36.191c-5.522 0-10 4.477-10 10v91.83h-27.49v-91.83c0-5.523-4.477-10-10-10h-36.191z"/></g></g></g></g></svg>