<svg id="Capa_1" enable-background="new 0 0 512 512" height="512" viewBox="0 0 512 512" width="512" xmlns="http://www.w3.org/2000/svg"><g><g><path d="m506.895 279.365-125.125-70.228v-38.658c0-3.213-1.543-6.229-4.148-8.109l-111.622-80.544v-33.801h12.888c5.522 0 10-4.478 10-10s-4.478-10-10-10h-12.888v-14.571c0-5.522-4.478-10-10-10s-10 4.478-10 10v14.571h-12.888c-5.522 0-10 4.478-10 10s4.478 10 10 10h12.888v33.801l-111.621 80.543c-2.605 1.88-4.148 4.896-4.148 8.109v38.658l-125.126 70.229c-3.153 1.771-5.105 5.105-5.105 8.721v210.46c0 5.522 4.478 10 10 10h492c5.522 0 10-4.478 10-10v-210.46c0-3.616-1.952-6.95-5.105-8.721zm-14.895 50.379-110.23-61.868v-35.217c0-.041 0-.081 0-.122v-.464l110.23 61.867zm-236-230.471 105.77 76.321v37.413l-99.918-72.098c-.164-.118-.33-.231-.499-.338-.133-.084-.268-.165-.403-.242-3.065-1.748-6.833-1.748-9.898 0-.136.077-.271.158-.403.242-.169.107-.335.22-.499.338l-99.918 72.098v-37.413zm-125.77 132.799v35.803l-110.23 61.869v-35.804zm-110.23 120.607 110.23-61.868v197.735h-110.23zm204.283 135.867v-82.856c0-19.141 15.571-34.712 34.711-34.712s34.711 15.571 34.711 34.712v82.855h-69.422zm157.487 0v-101.34c0-5.522-4.478-10-10-10s-10 4.478-10 10v101.34h-48.064v-82.856c0-30.168-24.543-54.712-54.711-54.712s-54.711 24.544-54.711 54.712v82.855h-54.054v-250.874l105.77-76.321 105.77 76.321v59.123c0 5.522 4.478 10 10 10s10-4.478 10-10v-5.983l110.23 61.868v135.866h-110.23z"/><g><path d="m256 318.961c-26.683 0-48.391-21.738-48.391-48.458s21.708-48.457 48.391-48.457 48.391 21.737 48.391 48.457-21.708 48.458-48.391 48.458zm0-76.915c-15.654 0-28.391 12.766-28.391 28.457s12.736 28.458 28.391 28.458 28.391-12.767 28.391-28.458-12.737-28.457-28.391-28.457z"/></g><g><g><path d="m458.863 452.69h-43.957c-5.522 0-10-4.478-10-10v-45.646c0-17.633 14.346-31.979 31.979-31.979s31.979 14.346 31.979 31.979v45.646c-.001 5.523-4.478 10-10.001 10zm-33.957-20h23.957v-35.646c0-6.605-5.374-11.979-11.979-11.979s-11.979 5.373-11.979 11.979v35.646z"/></g></g><g><g><g><path d="m371.77 352.18c-4.189 0-7.99-2.695-9.406-6.631-1.393-3.873-.206-8.331 2.938-10.991 3.282-2.777 8.092-3.121 11.745-.864 3.496 2.16 5.337 6.417 4.523 10.445-.934 4.62-5.083 8.041-9.8 8.041z"/></g></g></g><g><g><path d="m97.094 452.69h-43.957c-5.522 0-10-4.478-10-10v-45.646c0-17.633 14.346-31.979 31.979-31.979s31.979 14.346 31.979 31.979v45.646c-.001 5.523-4.479 10-10.001 10zm-33.957-20h23.957v-35.646c0-6.605-5.374-11.979-11.979-11.979s-11.979 5.373-11.979 11.979v35.646z"/></g></g></g></g></svg>